<svg height="32" viewBox="0 0 270 32" width="270" xmlns="http://www.w3.org/2000/svg"><g fill="none" fill-rule="evenodd"><path d="m0 7.512h2.847v2.846c.823-1.68 2.812-3.156 5.762-3.156 3.704 0 6.31 2.025 6.31 7.237v11.01h-2.846v-11.216c0-3.155-1.338-4.561-4.219-4.561-2.641 0-5.007 1.681-5.007 4.904v10.873h-2.847z" fill="#d8252c"/><path d="m32.418 16.635v-.275c0-4.527-2.503-6.791-5.522-6.791-3.327 0-5.865 2.195-5.865 6.791v.275c0 4.595 2.401 6.757 5.9 6.757 3.567 0 5.487-2.402 5.487-6.757zm-14.131-9.123h2.847v3.017c1.029-1.749 3.464-3.327 6.071-3.327 4.699 0 8.163 3.431 8.163 9.021v.274c0 5.488-3.224 9.261-8.163 9.261-2.95 0-5.042-1.475-6.071-3.259v9.192h-2.847z" fill="#d8252c"/><path d="m38.172 1.887c0-1.03.857-1.887 1.886-1.887s1.886.857 1.886 1.887c0 1.028-.857 1.885-1.886 1.885s-1.886-.857-1.886-1.885zm-2.127 27.712c2.024-.171 2.641-1.201 2.641-2.778v-19.309h2.847v19.069c0 3.43-1.509 5.281-5.488 5.419z" fill="#d8252c"/><path d="m59 31.94h2v-31.94h-2z" fill="#d8252c"/><g fill="#000105"><path d="m89.469 17.869v-.216c0-3.608-1.723-5.305-4.471-5.305-2.8 0-4.47 1.966-4.47 5.386v.215c0 3.556 1.912 5.252 4.282 5.252 2.612 0 4.659-1.722 4.659-5.332zm-11.257.189v-.216c0-4.309 2.693-7.352 6.571-7.352 2.343 0 3.798 1.131 4.606 2.504v-8.995h2.235v20.818h-2.235v-2.423c-.808 1.374-2.774 2.666-4.821 2.666-3.69 0-6.356-2.613-6.356-7.002z"/><path d="m95.434 24.817h2.235v-14.085h-2.235zm-.404-18.502c0-.807.673-1.481 1.481-1.481s1.481.674 1.481 1.481c0 .808-.673 1.482-1.481 1.482s-1.481-.674-1.481-1.482z"/><path d="m111.687 17.52v-.19c0-3.15-1.724-4.982-4.471-4.982-2.801 0-4.471 2.074-4.471 5.037v.215c0 3.07 1.966 4.902 4.337 4.902 2.612 0 4.605-1.832 4.605-4.982zm-10.961 8.105h2.289c.323 1.616 1.67 2.451 4.067 2.451 2.773 0 4.524-1.32 4.524-4.336v-2.047c-.808 1.373-2.72 2.666-4.767 2.666-3.69 0-6.41-2.8-6.41-6.678v-.189c0-3.824 2.694-7.002 6.571-7.002 2.344 0 3.798 1.131 4.606 2.504v-2.262h2.235v13.143c-.027 4.094-2.8 6.086-6.733 6.086-4.174 0-6.005-1.966-6.382-4.336z"/><path d="m117.651 24.817h2.235v-14.085h-2.235zm-.404-18.502c0-.807.673-1.481 1.482-1.481.807 0 1.48.674 1.48 1.481 0 .808-.673 1.482-1.48 1.482-.809 0-1.482-.674-1.482-1.482z"/><path d="m124.204 21.289v-8.672h-2.02v-1.885h2.02v-3.205h2.235v3.205h3.286v1.885h-3.286v8.457c0 1.373.62 2.047 1.75 2.047.701 0 1.239-.107 1.724-.297v1.885c-.458.162-.996.297-1.912.297-2.559 0-3.797-1.508-3.797-3.717"/><path d="m140.782 19.889v-1.75h-1.939c-2.828 0-4.902.699-4.902 2.773 0 1.455.7 2.37 2.666 2.37 2.371 0 4.175-1.212 4.175-3.393zm-9.076 1.023c0-3.259 3.447-4.363 7.056-4.363h2.02v-1.024c0-2.234-.862-3.177-3.016-3.177-1.94 0-3.017.808-3.232 2.531h-2.236c.297-3.204 2.855-4.389 5.575-4.389 2.693 0 5.144 1.104 5.144 5.035v9.292h-2.235v-1.777c-1.051 1.319-2.316 2.02-4.39 2.02-2.613 0-4.686-1.266-4.686-4.148z"/><path d="m146.738 24.817h2.263v-20.818h-2.263z"/><path d="m160.176 10.732h2.236v2.155c.646-1.321 2.181-2.397 4.201-2.397 1.804 0 3.393.754 4.12 2.639.97-1.831 3.071-2.639 4.821-2.639 2.532 0 4.74 1.508 4.74 5.602v8.725h-2.235v-8.887c0-2.478-1.05-3.501-2.989-3.501-1.832 0-3.717 1.239-3.717 3.77v8.618h-2.235v-8.887c0-2.478-1.051-3.501-2.99-3.501-1.831 0-3.716 1.239-3.716 3.77v8.618h-2.236z"/><path d="m193.759 16.414c-.215-2.908-1.723-4.066-4.04-4.066-2.289 0-3.824 1.562-4.201 4.066zm-10.638 1.509v-.216c0-4.255 2.72-7.217 6.598-7.217 3.259 0 6.329 1.965 6.329 7.002v.727h-10.611c.108 3.205 1.643 4.982 4.525 4.982 2.181 0 3.447-.807 3.743-2.451h2.235c-.484 2.828-2.827 4.31-6.005 4.31-3.986 0-6.814-2.801-6.814-7.137z"/><path d="m209.362 17.869v-.216c0-3.608-1.723-5.305-4.47-5.305-2.801 0-4.471 1.966-4.471 5.386v.215c0 3.556 1.912 5.252 4.282 5.252 2.612 0 4.659-1.722 4.659-5.332zm-11.257.189v-.216c0-4.309 2.693-7.352 6.571-7.352 2.344 0 3.798 1.131 4.606 2.504v-8.995h2.235v20.818h-2.235v-2.423c-.808 1.374-2.774 2.666-4.821 2.666-3.69 0-6.356-2.613-6.356-7.002z"/><path d="m215.327 24.817h2.236v-14.085h-2.236zm-.403-18.502c0-.807.673-1.481 1.48-1.481.809 0 1.482.674 1.482 1.481 0 .808-.673 1.482-1.482 1.482-.807 0-1.48-.674-1.48-1.482z"/><path d="m220.382 17.923v-.216c0-4.309 3.07-7.217 6.841-7.217 2.935 0 5.682 1.346 6.113 4.928h-2.208c-.351-2.235-1.967-3.07-3.905-3.07-2.559 0-4.525 2.047-4.525 5.359v.216c0 3.447 1.885 5.278 4.606 5.278 1.992 0 3.797-1.158 4.039-3.447h2.074c-.297 3.043-2.747 5.306-6.141 5.306-3.931 0-6.894-2.775-6.894-7.137"/><path d="m236.193 24.817h2.236v-14.085h-2.236zm-.404-18.502c0-.807.674-1.481 1.482-1.481.807 0 1.481.674 1.481 1.481 0 .808-.674 1.482-1.481 1.482-.808 0-1.482-.674-1.482-1.482z"/><path d="m242.231 10.732h2.236v2.235c.645-1.319 2.208-2.477 4.524-2.477 2.908 0 4.955 1.588 4.955 5.682v8.645h-2.235v-8.806c0-2.478-1.05-3.582-3.313-3.582-2.074 0-3.931 1.319-3.931 3.85v8.538h-2.236z"/><path d="m267.384 16.414c-.215-2.908-1.724-4.066-4.039-4.066-2.289 0-3.824 1.562-4.202 4.066zm-10.638 1.509v-.216c0-4.255 2.72-7.217 6.599-7.217 3.259 0 6.329 1.965 6.329 7.002v.727h-10.611c.107 3.205 1.642 4.982 4.524 4.982 2.182 0 3.447-.807 3.743-2.451h2.235c-.484 2.828-2.827 4.31-6.005 4.31-3.986 0-6.814-2.801-6.814-7.137z"/></g></g></svg>