<svg xmlns="http://www.w3.org/2000/svg" viewBox="0 0 500 75"><path d="M49.48,41.58l1.06.21A21.16,21.16,0,0,1,29.83,58.33a19.71,19.71,0,0,1-20-20.19q0-11.92,12.24-20.81a5.53,5.53,0,0,1-.69,0,4.91,4.91,0,0,1-.7-.1,3.35,3.35,0,0,1-.73-.07h-.72q-8.47,0-12.18,8.82L6,25.46A19.12,19.12,0,0,1,11.86,15a16,16,0,0,1,10.88-3.69,35.32,35.32,0,0,1,4.17.31q2.46.31,5.76,1a58,58,0,0,0,9.93,1.24c3.22,0,5.52-1.26,6.88-3.79l1.06.35a9.76,9.76,0,0,1-3.41,7,11.32,11.32,0,0,1-7.44,2.48c-.27,0-.69,0-1.26-.07s-1-.07-1.26-.07V51.92Q45,50,49.48,41.58ZM18,24.63a22.51,22.51,0,0,0-2.25,10A18.21,18.21,0,0,0,21.82,48.4q2.91-2.2,2.91-7.71V17.33A15.23,15.23,0,0,0,18,24.63Zm16.78-5.37c-.38-.09-.79-.19-1.23-.28l-1.22-.24a5.39,5.39,0,0,0-1-.1V35.93q0,6.34-3.58,9.72s-.44.38-1.19,1-1.87,1.57-3.37,2.86a16.67,16.67,0,0,0,9.46,3h.8a7,7,0,0,0,.79,0,5,5,0,0,0,.73-.1.67.67,0,0,1,.33-.07,1.16,1.16,0,0,0,.4-.07V19.46C35.45,19.42,35.13,19.35,34.76,19.26Z" style="fill:#991208"/><path d="M52.46,54l2.65-2.27V19.46a8.32,8.32,0,0,0-2.85-6.82l.53-1a18.32,18.32,0,0,1,4.83,3.51,12.47,12.47,0,0,1,7.68-4.13l.4.76a8.17,8.17,0,0,1-1,.75c-2,1.47-3,3.75-3,6.82V31.66L71,23.87l1.45,1.24a8,8,0,0,1,2.78,4.41,22.09,22.09,0,0,1,.4,4.69V47.85a23.45,23.45,0,0,1-1.06,7.79,12.86,12.86,0,0,1-4.63,5.92q-3.25,2.55-12,6.2l-.4-1.24L58.62,66l1.59-.73q4.89-2.4,6.81-5.51,1.86-3,1.86-8.75V34.42q0-3.66-2.12-5.31l-5,4.13V51.71l2.12,2.48L58,58.74Z" style="fill:#991208"/><path d="M90.85,58.67A31.06,31.06,0,0,0,80.66,54.4v-.76q2-1,2.18-4.69V34c0-1.74-.73-2.62-2.18-2.62l-.27-.75q4-1.8,7.15-3.48t5.69-3.28l8.08,10.75L89.33,45V51.3q3.57,1.86,5.76,3.1L99.79,51l.66,1ZM96.08,37l-6.75-9V42.68Z" style="fill:#991208"/><path d="M156.84,15.74l2-3.65,1.2.83L152.8,26.15a.4.4,0,0,0,.27.07.38.38,0,0,0,.26-.07h2.18a22.92,22.92,0,0,1,10.33,2q6.22,3.17,6.22,9.78T165.84,50a56.66,56.66,0,0,1-11.72,7.58,16.05,16.05,0,0,1-4.5-1.79l-1.49-.66a9.17,9.17,0,0,1-1.22-.65Q139,58.6,133.47,58.6h-.79a3.29,3.29,0,0,0-.73-.07q-6.28-.83-6.35-5.58a5.51,5.51,0,0,1,3-5,10,10,0,0,1,5.75-1.65,36.37,36.37,0,0,1,5.37.41L142,42.41h-4.5a5.83,5.83,0,0,1-1.32,0,12,12,0,0,1-6.82-2.34,5.75,5.75,0,0,1-2.51-5.17q0-4.89,5.56-7.31,0-7.71,11.51-16.53V11ZM133.28,51.43a6.81,6.81,0,0,0-3.71,1,2.11,2.11,0,0,0-1,1.93q0,2.34,3,2.82H132a1.27,1.27,0,0,0,.46.07,26.14,26.14,0,0,0,12.44-3.37v-.07A36.06,36.06,0,0,0,133.28,51.43Zm10.55-18.87c-1.3.09-2.59.13-3.87.13a13.91,13.91,0,0,1-4.43-.55,5.09,5.09,0,0,1-2.92-3.24,4,4,0,0,0,.47,6.89,8.66,8.66,0,0,0,4.3,1h2c.7,0,1.38,0,2,0s1.32,0,2-.1l2-.14,2.38-4.41C146.45,32.33,145.13,32.46,143.83,32.56Zm-1.55-15.65h-.53a6,6,0,0,0-3.68,1.73,4.94,4.94,0,0,0-1.55,3.65c0,2.94,1.87,4.5,5.63,4.68h1.45a8.44,8.44,0,0,0,.93-.06h1.65l2-.21,2.78-.35,3-5.51Q146.71,16.91,142.28,16.91ZM147,48.4c.92.23,1.85.5,2.78.8s1.85.6,2.78.93c.57-.37,1.25-.85,2.05-1.45s1.74-1.33,2.84-2.21a3.62,3.62,0,0,0,1.13-2.55,2.42,2.42,0,0,0-1.26-2.06,4.2,4.2,0,0,0-2.31-.62,31.87,31.87,0,0,0-3.31.2l-6.82.76a2.3,2.3,0,0,1-1.06.21l-2.52,4.48ZM149,36.28a15.59,15.59,0,0,0,2.32-.35,4.72,4.72,0,0,0,.72-.07,6.42,6.42,0,0,1,.73-.07c1.37-.13,2.32-.2,2.85-.2a12.48,12.48,0,0,1,2.84.27q5.56,1.24,5.56,5.38t-6,7.71c-.49.28-1.06.62-1.72,1l-1.59.89,2.38,1,1.19.52c.4.16.77.33,1.13.51a.92.92,0,0,1,.39-.27q7.68-5.58,7.68-11.79a8,8,0,0,0-3.64-6.89,12.59,12.59,0,0,0-7.48-2.2c-1.15,0-2.3,0-3.47.07s-2.33.11-3.48.2l-2.38,4.28A15.33,15.33,0,0,0,149,36.28Z" style="fill:#991208"/><path d="M184.31,14.92V25.18h5.56V28.9h-5.56v22a10.31,10.31,0,0,0,.86.66c.35.25.77.56,1.25.93l1.06.82,2.06-1.79.92,1.17-7,6a15.44,15.44,0,0,0-7.75-4.75V53c1.41-.92,2.12-2.66,2.12-5.24V28.9H175V27.8Z" style="fill:#991208"/><path d="M209.32,58.67c-.17-.18-.38-.38-.62-.59a9.55,9.55,0,0,1-.83-.79,10.45,10.45,0,0,1-2.45-5.92l-8.74,7.3q-5.1-4.06-5.09-8.54,0-5.66,5.29-11.79l.93-1.1-5.69-10.61c0,.05.06.07.19.07h.34a.19.19,0,0,0,.13.07h.73a11.85,11.85,0,0,0,8.07-2.9l.27.14.39.21q5,2.69,8.28,2.69a4.33,4.33,0,0,0,3-1.52l.86.55A13.38,13.38,0,0,0,212,32.76c0,.51-.07,1-.07,1.59v16c.05,1.66.6,2.55,1.66,2.69a5.06,5.06,0,0,0,1.59-.55l.13-.14.06-.07a.36.36,0,0,0,.27-.14l.66.83Zm-15.09-30.8,4.9,9.23,6.29,2.83v-8.2Zm4.31,10.34c-.14,0-.36.68-.67,2.06a25.9,25.9,0,0,0-.79,5.52c0,2.38,1.37,4.89,4.1,7.5l4.24-3.65V41.31l-3.57-1.59Z" style="fill:#991208"/><path d="M223.75,23.8a16.49,16.49,0,0,1,2.85,3.11,7.75,7.75,0,0,1,.93,4l8.2-7.1,4.77,5,3.11-3.1.93,1.1c-.27.27-.58.62-.93,1s-.75.92-1.19,1.52q-1.26,2-1.26,6.47V49.51q0,3.3,1.59,3.3a2.67,2.67,0,0,0,1.52-.76V52l.53-.42.8,1.31-6.95,5.79a7.24,7.24,0,0,1-1-1c-.38-.42-.81-.92-1.29-1.52-1.1-1.61-1.66-4.14-1.66-7.58V31.31l-2.58-2.75-4.56,3.93V51.37l2.25,2.48-5.7,4.82-5.62-5L221,51.23V33.31a.37.37,0,0,1,.07-.27V31.73c-.05-1.56-.53-2.34-1.46-2.34a3,3,0,0,0-1.66.68L217.2,29Z" style="fill:#991208"/><path d="M256.32,58.67a21.35,21.35,0,0,0-7.95-5v-.83q2.06-1.17,2.12-4.68V28.83h-2.58V25.18h2.58V16.64c1-.74,2.09-1.55,3.21-2.45s2.29-1.87,3.48-2.93l6.42,1.59-1.06,5.37L257,16.71v8.47h4.37v3.65H257V51l1.72,1.31.79.69.8.69,2-1.72.93.89Z" style="fill:#991208"/><path d="M282.39,54.67c-.83.42-1.5.76-2,1-.88.5-1.72,1-2.52,1.48a17.31,17.31,0,0,0-2.11,1.48,22.81,22.81,0,0,0-12-5.1v-.9a3.57,3.57,0,0,0,1.59-2.48c.09-1,.15-1.92.2-2.75s.06-1.59.06-2.27V29.45a24.31,24.31,0,0,0,9.34-5.58,33.29,33.29,0,0,0,10.45,5V53.29C284.22,53.8,283.23,54.26,282.39,54.67ZM272,50.06l6.89,3.1V32.28L272,29.18Z" style="fill:#991208"/><path d="M294.9,23.8a10.35,10.35,0,0,1,4.64,5.59l6-5.72,4.77,6.13-4.51,4.34-3.9-5-2.65,2.41V50.88l3.24,2.48,3.05-2.48.93,1.11-8,6.68q-4-4.06-8.08-4.89V53c1.5-.87,2.25-2.69,2.25-5.44V33.59a6.49,6.49,0,0,0-.92-3.93l-.67-.69-1.92,1.66-.79-1Z" style="fill:#991208"/><path d="M312.18,11.88l20,15.37a7,7,0,0,1,3.31-2.69l.33,1.11c-1,1-1.46,2.71-1.46,5V53.16a46.49,46.49,0,0,0-9.73,5.51,29.8,29.8,0,0,0-7.21-3.86,26.21,26.21,0,0,0-5.23-1.1v-.83q1.92-1.58,1.92-6.2V29.11a14,14,0,0,0,6.35-2.76l-8.27-6.54ZM327.87,53v-21l-5.37-4.13q-.39.4-.72.69c-.23.18-.53.41-.93.69V49.57Z" style="fill:#991208"/><path d="M396.76,58.67a53.75,53.75,0,0,0-15.22-2.34,33.41,33.41,0,0,0-16.81,4.48l-.86-1.31,1-.62,6.56-4.07.52-.31,1-.58A20.31,20.31,0,0,0,379,48.27a14.59,14.59,0,0,0,2.11-8.14V31.25q0-6.42,2.12-10.27-6,1.51-6,9.78v7.72q0,6.69-2.18,9.85a17.42,17.42,0,0,1-1.43,1.73,27.29,27.29,0,0,1-2.15,2.06c-1.28,1.15-2.62,2.26-4,3.31s-2.89,2.09-4.43,3.1l-.86-1.17a23.6,23.6,0,0,0,6-5.24,7.59,7.59,0,0,0,1.79-5v-.55A6.23,6.23,0,0,0,368.47,43a4,4,0,0,0-3.14-1.52,4.5,4.5,0,0,0-3.18,1.66l-.93-.76q2.58-5,6.69-5a6.62,6.62,0,0,1,3,.69,34.19,34.19,0,0,1,1.19-8.89c.61-2.3,2.45-4.53,5.49-6.69.31-.23.64-.45,1-.68s.73-.46,1.13-.69H378a7.2,7.2,0,0,0-1.12.07c-.27,0-.72,0-1.36.06s-1.13.07-1.49.07q-6.29,0-8.73-1.38Q362,18.09,362,12l.86-.07c.84,2.12,2.82,3.17,6,3.17q2.91,0,8.8-.2l5.16-.21c1.46,0,2.69-.07,3.71-.07q6.62,0,10.19,1.59,4.58,2,6.89,7.64c1.36,3.31,2.25,8.25,2.64,14.82.09,1.47.16,3.3.2,5.48s.07,4.74.07,7.68v-.07ZM386,20.84s-.06,0-.06-.07h-.53a.19.19,0,0,1-.14.07h-.13q-2.44,3.38-2.45,10.47v7.86q0,8.34-4.3,12.06a31.79,31.79,0,0,1,7.74-1V20.77A.16.16,0,0,1,386,20.84ZM393.39,35A9.85,9.85,0,0,0,399.08,33q-.52-6.41-3-9t-8.47-3.17V32.9A9.58,9.58,0,0,0,393.39,35Zm.07,6A11.55,11.55,0,0,1,399.74,43c0-1.38-.11-2.74-.2-4.1s-.19-2.7-.33-4a12.62,12.62,0,0,1-5.95,1.93,10,10,0,0,1-5.63-1.93V43A12.58,12.58,0,0,1,393.46,41Zm6.48,11.58c0-3.22-.06-5.79-.2-7.72a10.3,10.3,0,0,0-6.22-2.34h-.4a1.31,1.31,0,0,0-.46.07,12.4,12.4,0,0,0-5,2.13v5.44A67,67,0,0,1,399.94,52.61Z" style="fill:#991208"/><path d="M429.46,58.67a7.54,7.54,0,0,0-.63-.59,9.59,9.59,0,0,1-.82-.79,10.45,10.45,0,0,1-2.45-5.92l-8.74,7.3q-5.1-4.06-5.1-8.54,0-5.66,5.3-11.79l.93-1.1-5.7-10.61c0,.05.07.07.2.07h.33a.23.23,0,0,0,.14.07h.72a11.85,11.85,0,0,0,8.08-2.9L422,24l.4.21q5,2.69,8.27,2.69a4.35,4.35,0,0,0,3-1.52l.86.55a13.38,13.38,0,0,0-2.31,6.82c-.05.51-.07,1-.07,1.59v16c0,1.66.6,2.55,1.65,2.69a4.9,4.9,0,0,0,1.59-.55l.13-.14.07-.07a.36.36,0,0,0,.27-.14l.66.83Zm-15.09-30.8,4.9,9.23,6.29,2.83v-8.2Zm4.3,10.34c-.13,0-.35.68-.66,2.06a25.9,25.9,0,0,0-.79,5.52c0,2.38,1.36,4.89,4.1,7.5l4.24-3.65V41.31L422,39.72Z" style="fill:#991208"/><path d="M445.35,58.67q-1.73-1.86-3.28-3.24a21.39,21.39,0,0,0-3-2.27v-.69q2.12-.77,2.12-4.48V30.35l-2.32-2.07,5.49-4.48,5.5,4.69-2.25,2.14V51.92l1.85,1.72,2-1.72.79,1.17ZM446.54,10l5.49.21L446.54,18,445,17.88Z" style="fill:#991208"/><path d="M462.69,58.67a16.71,16.71,0,0,0-8-4.82V52.74q2.25-1.1,2.25-4.89V20.77a14.21,14.21,0,0,0-.47-4.41,5.65,5.65,0,0,0-2.77-3.17l.33-1.1a18.17,18.17,0,0,1,5.16,3.38,14.12,14.12,0,0,1,7.35-4.41l.33,1-.5.52a6.81,6.81,0,0,1-.76.65,6.47,6.47,0,0,0-1.92,3.38,19.78,19.78,0,0,0-.26,4V51l3.24,2.34,1.39-1.1.92,1.1Z" style="fill:#991208"/><path d="M474.73,23.87a2.58,2.58,0,0,1,.4.31,6,6,0,0,0,.79.59c2,1.52,3.05,3.81,3.05,6.89L488,24.08a16.66,16.66,0,0,1,3,4.75,23,23,0,0,1,1.19,5.52,1.63,1.63,0,0,1,.07.55v.62q0,6.54-5.3,11.92A30.6,30.6,0,0,1,482.87,51q-2.64,1.94-6.48,4.34c-.62.37-1.37.85-2.25,1.45s-1.9,1.35-3.05,2.27a4.54,4.54,0,0,0-1.32,3.24,3.55,3.55,0,0,0,1.39,3,5.37,5.37,0,0,0,3.37,1.07,6.24,6.24,0,0,0,4.17-1.66c1.11-1.14,2-1.72,2.78-1.72s1.33.48,1.33,1.45c0,1.38-1.48,2.36-4.44,3a19.2,19.2,0,0,1-3.7.41,7.18,7.18,0,0,1-4.57-1.3,5,5,0,0,1-2-4.28c0-1.28.71-3,2.12-5.16a11.79,11.79,0,0,0,2.12-6.48V33.66a.39.39,0,0,1,.07-.28V32.07c-.09-1.65-.62-2.48-1.59-2.48a2.9,2.9,0,0,0-1.66.83.17.17,0,0,1-.13.07l-.07.07-.13.13-.86-1Zm4.17,28a15.58,15.58,0,0,0,4.87-5.62A18.1,18.1,0,0,0,485.92,39v-.82a14.87,14.87,0,0,0-2.52-8.41l-4.5,3.65Z" style="fill:#991208"/></svg>